<svg xmlns="http://www.w3.org/2000/svg" viewBox="0 0 256 256" role="img" aria-label="Modex icon">
  <defs>
    <linearGradient id="bg" x1="32" x2="224" y1="24" y2="232" gradientUnits="userSpaceOnUse">
      <stop offset="0" stop-color="#0f172d" />
      <stop offset="1" stop-color="#1b3c53" />
    </linearGradient>
    <linearGradient id="chip" x1="56" x2="192" y1="64" y2="184" gradientUnits="userSpaceOnUse">
      <stop offset="0" stop-color="#9ae6ff" />
      <stop offset="1" stop-color="#24d1b5" />
    </linearGradient>
  </defs>
  <rect width="256" height="256" rx="64" fill="url(#bg)" />
  <path
    fill="url(#chip)"
    d="M73 62h110c20.4 0 37 16.6 37 37v58c0 20.4-16.6 37-37 37H73c-20.4 0-37-16.6-37-37V99c0-20.4 16.6-37 37-37Zm8 36c-10.5 0-19 8.5-19 19v22c0 10.5 8.5 19 19 19h94c10.5 0 19-8.5 19-19v-22c0-10.5-8.5-19-19-19Zm8 17h22v28H89Zm28 0h50v10h-50Zm0 18h38v10h-38Z"
  />
</svg>
